FICHA TECNICA:

TÍTULO ORIGINAL	Kill Bill: Volume 1 (AKA Kill Bill Vol. 1)
AÑO	 2003
DURACIÓN	Trailers/Vídeos 110 min.
PAÍS	Sección visual
DIRECTOR	Quentin Tarantino
GUIÓN	Quentin Tarantino
MÚSICA	Varios
FOTOGRAFÍA	Robert Richardson
REPARTO	Uma Thurman, Lucy Liu, Daryl Hannah, Vivica A. Fox, Sonny Chiba, Chiaki Kuriyama, Michael Bowen, Julie Dreyfus, Michael Parks, David Carradine, Michael Madsen
PRODUCTORA	Miramax Films / A Band Apart
WEB OFICIAL	http://www.kill-bill.com/
PREMIOS	2003: Globos de Oro: Nominada a Mejor Actriz (Thurman).
2003: 4 nominaciones BAFTA: Mejor Actriz (Thurman), Montaje, Sonido, Efectos Visuales
2003: Festival Sitges: Premio del público
GÉNERO	Acción. Thriller | Artes marciales. Crimen

SINOPSIS:
El día de su boda, una asesina profesional (Thurman) sufre el ataque de algunos miembros de su propia banda, que obedecen las órdenes de Bill (David Carradine), el jefe de la organización criminal. Logra sobrevivir al ataque, aunque queda en coma. Cinco años después despierta dominada por un gran deseo de venganza.

Video
ID : 1
Format : AVC
Format/Info : Advanced Video Codec
Format profile : High@L4.0
Format settings, CABAC : Yes
Format settings, ReFrames : 4 frames
Codec ID : V_MPEG4/ISO/AVC
Duration : 1h 50mn
Bit rate : 3 209 Kbps
Width : 1 920 pixels
Height : 800 pixels
Display aspect ratio : 2.40:1
Frame rate : 24.000 fps
Original frame rate : 23.976 fps
Color space : YUV
Chroma subsampling : 4:2:0
Bit depth : 8 bits
Scan type : Progressive
Bits/(Pixel*Frame) : 0.087
Stream size : 2.43 GiB (81%)

Audio #1
ID : 2
Format : AC-3
Format/Info : Audio Coding 3
Mode extension : CM (complete main)
Codec ID : A_AC3
Duration : 1h 50mn
Bit rate mode : Constant
Bit rate : 384 Kbps
Channel(s) : 6 channels
Channel positions : Front: L C R, Side: L R, LFE
Sampling rate : 48.0 KHz
Bit depth : 16 bits
Compression mode : Lossy
Stream size : 304 MiB (10%)
Language : Spanish
Default : Yes
Forced : No

Audio #2
ID : 5
Format : AC-3
Format/Info : Audio Coding 3
Mode extension : CM (complete main)
Codec ID : A_AC3
Duration : 1h 50mn
Bit rate mode : Constant
Bit rate : 256 Kbps
Channel(s) : 6 channels
Channel positions : Front: L C R, Side: L R, LFE
Sampling rate : 48.0 KHz
Bit depth : 16 bits
Compression mode : Lossy
Stream size : 203 MiB (7%)
Language : English
Default : No
Forced : No

Text #1
ID : 3
Format : UTF-8
Codec ID : S_TEXT/UTF8
Codec ID/Info : UTF-8 Plain Text
Title : Español forzados
Language : Spanish
Default : Yes
Forced : No